<svg xmlns="http://www.w3.org/2000/svg" version="1.1" xmlns:xlink="http://www.w3.org/1999/xlink" xmlns:svgjs="http://svgjs.dev/svgjs" viewBox="0 0 800 800"><g stroke-width="3.5" stroke="hsl(273, 100%, 43%)" fill="none" stroke-linecap="butt"><line x1="0" y1="0" x2="62" y2="62" opacity="0.05"></line><line x1="124" y1="0" x2="62" y2="62" opacity="0.05"></line><line x1="124" y1="0" x2="186" y2="62" opacity="0.05"></line><line x1="248" y1="0" x2="186" y2="62" opacity="0.05"></line><line x1="310" y1="0" x2="248" y2="62" opacity="0.05"></line><line x1="310" y1="0" x2="372" y2="62" opacity="0.05"></line><line x1="434" y1="0" x2="372" y2="62" opacity="0.05"></line><line x1="496" y1="0" x2="434" y2="62" opacity="0.05"></line><line x1="496" y1="0" x2="558" y2="62" opacity="0.05"></line><line x1="620" y1="0" x2="558" y2="62" opacity="0.05"></line><line x1="682" y1="0" x2="620" y2="62" opacity="0.05"></line><line x1="744" y1="0" x2="682" y2="62" opacity="0.05"></line><line x1="806" y1="0" x2="744" y2="62" opacity="0.05"></line><line x1="62" y1="62" x2="0" y2="124" opacity="0.12"></line><line x1="124" y1="62" x2="62" y2="124" opacity="0.12"></line><line x1="186" y1="62" x2="124" y2="124" opacity="0.12"></line><line x1="186" y1="62" x2="248" y2="124" opacity="0.12"></line><line x1="248" y1="62" x2="310" y2="124" opacity="0.12"></line><line x1="372" y1="62" x2="310" y2="124" opacity="0.12"></line><line x1="372" y1="62" x2="434" y2="124" opacity="0.12"></line><line x1="434" y1="62" x2="496" y2="124" opacity="0.12"></line><line x1="496" y1="62" x2="558" y2="124" opacity="0.12"></line><line x1="620" y1="62" x2="558" y2="124" opacity="0.12"></line><line x1="620" y1="62" x2="682" y2="124" opacity="0.12"></line><line x1="682" y1="62" x2="744" y2="124" opacity="0.12"></line><line x1="806" y1="62" x2="744" y2="124" opacity="0.12"></line><line x1="62" y1="124" x2="0" y2="186" opacity="0.20"></line><line x1="124" y1="124" x2="62" y2="186" opacity="0.20"></line><line x1="186" y1="124" x2="124" y2="186" opacity="0.20"></line><line x1="186" y1="124" x2="248" y2="186" opacity="0.20"></line><line x1="310" y1="124" x2="248" y2="186" opacity="0.20"></line><line x1="372" y1="124" x2="310" y2="186" opacity="0.20"></line><line x1="434" y1="124" x2="372" y2="186" opacity="0.20"></line><line x1="434" y1="124" x2="496" y2="186" opacity="0.20"></line><line x1="558" y1="124" x2="496" y2="186" opacity="0.20"></line><line x1="558" y1="124" x2="620" y2="186" opacity="0.20"></line><line x1="682" y1="124" x2="620" y2="186" opacity="0.20"></line><line x1="744" y1="124" x2="682" y2="186" opacity="0.20"></line><line x1="744" y1="124" x2="806" y2="186" opacity="0.20"></line><line x1="0" y1="186" x2="62" y2="248" opacity="0.27"></line><line x1="124" y1="186" x2="62" y2="248" opacity="0.27"></line><line x1="186" y1="186" x2="124" y2="248" opacity="0.27"></line><line x1="186" y1="186" x2="248" y2="248" opacity="0.27"></line><line x1="310" y1="186" x2="248" y2="248" opacity="0.27"></line><line x1="372" y1="186" x2="310" y2="248" opacity="0.27"></line><line x1="434" y1="186" x2="372" y2="248" opacity="0.27"></line><line x1="434" y1="186" x2="496" y2="248" opacity="0.27"></line><line x1="558" y1="186" x2="496" y2="248" opacity="0.27"></line><line x1="558" y1="186" x2="620" y2="248" opacity="0.27"></line><line x1="620" y1="186" x2="682" y2="248" opacity="0.27"></line><line x1="744" y1="186" x2="682" y2="248" opacity="0.27"></line><line x1="744" y1="186" x2="806" y2="248" opacity="0.27"></line><line x1="0" y1="248" x2="62" y2="310" opacity="0.34"></line><line x1="124" y1="248" x2="62" y2="310" opacity="0.34"></line><line x1="186" y1="248" x2="124" y2="310" opacity="0.34"></line><line x1="186" y1="248" x2="248" y2="310" opacity="0.34"></line><line x1="310" y1="248" x2="248" y2="310" opacity="0.34"></line><line x1="372" y1="248" x2="310" y2="310" opacity="0.34"></line><line x1="434" y1="248" x2="372" y2="310" opacity="0.34"></line><line x1="496" y1="248" x2="434" y2="310" opacity="0.34"></line><line x1="496" y1="248" x2="558" y2="310" opacity="0.34"></line><line x1="558" y1="248" x2="620" y2="310" opacity="0.34"></line><line x1="682" y1="248" x2="620" y2="310" opacity="0.34"></line><line x1="744" y1="248" x2="682" y2="310" opacity="0.34"></line><line x1="806" y1="248" x2="744" y2="310" opacity="0.34"></line><line x1="62" y1="310" x2="0" y2="372" opacity="0.42"></line><line x1="124" y1="310" x2="62" y2="372" opacity="0.42"></line><line x1="124" y1="310" x2="186" y2="372" opacity="0.42"></line><line x1="186" y1="310" x2="248" y2="372" opacity="0.42"></line><line x1="248" y1="310" x2="310" y2="372" opacity="0.42"></line><line x1="372" y1="310" x2="310" y2="372" opacity="0.42"></line><line x1="434" y1="310" x2="372" y2="372" opacity="0.42"></line><line x1="496" y1="310" x2="434" y2="372" opacity="0.42"></line><line x1="558" y1="310" x2="496" y2="372" opacity="0.42"></line><line x1="620" y1="310" x2="558" y2="372" opacity="0.42"></line><line x1="682" y1="310" x2="620" y2="372" opacity="0.42"></line><line x1="682" y1="310" x2="744" y2="372" opacity="0.42"></line><line x1="806" y1="310" x2="744" y2="372" opacity="0.42"></line><line x1="0" y1="372" x2="62" y2="434" opacity="0.49"></line><line x1="62" y1="372" x2="124" y2="434" opacity="0.49"></line><line x1="186" y1="372" x2="124" y2="434" opacity="0.49"></line><line x1="248" y1="372" x2="186" y2="434" opacity="0.49"></line><line x1="310" y1="372" x2="248" y2="434" opacity="0.49"></line><line x1="372" y1="372" x2="310" y2="434" opacity="0.49"></line><line x1="372" y1="372" x2="434" y2="434" opacity="0.49"></line><line x1="434" y1="372" x2="496" y2="434" opacity="0.49"></line><line x1="558" y1="372" x2="496" y2="434" opacity="0.49"></line><line x1="620" y1="372" x2="558" y2="434" opacity="0.49"></line><line x1="620" y1="372" x2="682" y2="434" opacity="0.49"></line><line x1="744" y1="372" x2="682" y2="434" opacity="0.49"></line><line x1="744" y1="372" x2="806" y2="434" opacity="0.49"></line><line x1="62" y1="434" x2="0" y2="496" opacity="0.57"></line><line x1="62" y1="434" x2="124" y2="496" opacity="0.57"></line><line x1="124" y1="434" x2="186" y2="496" opacity="0.57"></line><line x1="186" y1="434" x2="248" y2="496" opacity="0.57"></line><line x1="248" y1="434" x2="310" y2="496" opacity="0.57"></line><line x1="310" y1="434" x2="372" y2="496" opacity="0.57"></line><line x1="434" y1="434" x2="372" y2="496" opacity="0.57"></line><line x1="496" y1="434" x2="434" y2="496" opacity="0.57"></line><line x1="496" y1="434" x2="558" y2="496" opacity="0.57"></line><line x1="620" y1="434" x2="558" y2="496" opacity="0.57"></line><line x1="682" y1="434" x2="620" y2="496" opacity="0.57"></line><line x1="744" y1="434" x2="682" y2="496" opacity="0.57"></line><line x1="744" y1="434" x2="806" y2="496" opacity="0.57"></line><line x1="0" y1="496" x2="62" y2="558" opacity="0.64"></line><line x1="62" y1="496" x2="124" y2="558" opacity="0.64"></line><line x1="186" y1="496" x2="124" y2="558" opacity="0.64"></line><line x1="248" y1="496" x2="186" y2="558" opacity="0.64"></line><line x1="310" y1="496" x2="248" y2="558" opacity="0.64"></line><line x1="372" y1="496" x2="310" y2="558" opacity="0.64"></line><line x1="372" y1="496" x2="434" y2="558" opacity="0.64"></line><line x1="434" y1="496" x2="496" y2="558" opacity="0.64"></line><line x1="496" y1="496" x2="558" y2="558" opacity="0.64"></line><line x1="558" y1="496" x2="620" y2="558" opacity="0.64"></line><line x1="620" y1="496" x2="682" y2="558" opacity="0.64"></line><line x1="682" y1="496" x2="744" y2="558" opacity="0.64"></line><line x1="806" y1="496" x2="744" y2="558" opacity="0.64"></line><line x1="62" y1="558" x2="0" y2="620" opacity="0.71"></line><line x1="124" y1="558" x2="62" y2="620" opacity="0.71"></line><line x1="186" y1="558" x2="124" y2="620" opacity="0.71"></line><line x1="186" y1="558" x2="248" y2="620" opacity="0.71"></line><line x1="310" y1="558" x2="248" y2="620" opacity="0.71"></line><line x1="310" y1="558" x2="372" y2="620" opacity="0.71"></line><line x1="434" y1="558" x2="372" y2="620" opacity="0.71"></line><line x1="496" y1="558" x2="434" y2="620" opacity="0.71"></line><line x1="558" y1="558" x2="496" y2="620" opacity="0.71"></line><line x1="620" y1="558" x2="558" y2="620" opacity="0.71"></line><line x1="682" y1="558" x2="620" y2="620" opacity="0.71"></line><line x1="682" y1="558" x2="744" y2="620" opacity="0.71"></line><line x1="806" y1="558" x2="744" y2="620" opacity="0.71"></line><line x1="62" y1="620" x2="0" y2="682" opacity="0.79"></line><line x1="124" y1="620" x2="62" y2="682" opacity="0.79"></line><line x1="186" y1="620" x2="124" y2="682" opacity="0.79"></line><line x1="248" y1="620" x2="186" y2="682" opacity="0.79"></line><line x1="248" y1="620" x2="310" y2="682" opacity="0.79"></line><line x1="310" y1="620" x2="372" y2="682" opacity="0.79"></line><line x1="434" y1="620" x2="372" y2="682" opacity="0.79"></line><line x1="496" y1="620" x2="434" y2="682" opacity="0.79"></line><line x1="558" y1="620" x2="496" y2="682" opacity="0.79"></line><line x1="620" y1="620" x2="558" y2="682" opacity="0.79"></line><line x1="682" y1="620" x2="620" y2="682" opacity="0.79"></line><line x1="744" y1="620" x2="682" y2="682" opacity="0.79"></line><line x1="806" y1="620" x2="744" y2="682" opacity="0.79"></line><line x1="0" y1="682" x2="62" y2="744" opacity="0.86"></line><line x1="62" y1="682" x2="124" y2="744" opacity="0.86"></line><line x1="186" y1="682" x2="124" y2="744" opacity="0.86"></line><line x1="186" y1="682" x2="248" y2="744" opacity="0.86"></line><line x1="310" y1="682" x2="248" y2="744" opacity="0.86"></line><line x1="310" y1="682" x2="372" y2="744" opacity="0.86"></line><line x1="434" y1="682" x2="372" y2="744" opacity="0.86"></line><line x1="434" y1="682" x2="496" y2="744" opacity="0.86"></line><line x1="496" y1="682" x2="558" y2="744" opacity="0.86"></line><line x1="620" y1="682" x2="558" y2="744" opacity="0.86"></line><line x1="682" y1="682" x2="620" y2="744" opacity="0.86"></line><line x1="682" y1="682" x2="744" y2="744" opacity="0.86"></line><line x1="744" y1="682" x2="806" y2="744" opacity="0.86"></line><line x1="62" y1="744" x2="0" y2="806" opacity="0.93"></line><line x1="62" y1="744" x2="124" y2="806" opacity="0.93"></line><line x1="186" y1="744" x2="124" y2="806" opacity="0.93"></line><line x1="248" y1="744" x2="186" y2="806" opacity="0.93"></line><line x1="248" y1="744" x2="310" y2="806" opacity="0.93"></line><line x1="310" y1="744" x2="372" y2="806" opacity="0.93"></line><line x1="434" y1="744" x2="372" y2="806" opacity="0.93"></line><line x1="434" y1="744" x2="496" y2="806" opacity="0.93"></line><line x1="558" y1="744" x2="496" y2="806" opacity="0.93"></line><line x1="620" y1="744" x2="558" y2="806" opacity="0.93"></line><line x1="620" y1="744" x2="682" y2="806" opacity="0.93"></line><line x1="682" y1="744" x2="744" y2="806" opacity="0.93"></line><line x1="806" y1="744" x2="744" y2="806" opacity="0.93"></line></g></svg>